<mxfile host="app.diagrams.net" modified="2023-04-26T00:08:56.961Z" agent="Mozilla/5.0 (Windows NT 10.0; Win64; x64) AppleWebKit/537.36 (KHTML, like Gecko) Chrome/112.0.0.0 Safari/537.36" version="21.2.2" etag="D2pJvd_DCQSy6VwJBX4f" type="github">
  <diagram name="Page-1" id="RlRCFnHlJ8y1LrGGj3-T">
    <mxGraphModel>
      <root>
        <mxCell id="0" />
        <mxCell id="1" parent="0" />
      </root>
    </mxGraphModel>
  </diagram>
</mxfile>
